<?xml version="1.0" encoding="utf-8"?>
<!-- Generator: Adobe Illustrator 23.0.2, SVG Export Plug-In . SVG Version: 6.00 Build 0)  -->
<svg version="1.1" id="Layer_1" xmlns="http://www.w3.org/2000/svg" xmlns:xlink="http://www.w3.org/1999/xlink" x="0px" y="0px"
	 viewBox="0 0 23.8 17.2" style="enable-background:new 0 0 23.8 17.2;" xml:space="preserve">
<style type="text/css">
	.st0{opacity:0.42;}
</style>
<g class="st0">
	<path d="M22.3,3.4H1.5C0.7,3.4,0,2.6,0,1.7S0.7,0,1.5,0h20.8c0.8,0,1.5,0.8,1.5,1.7S23.1,3.4,22.3,3.4z"/>
	<path d="M22.3,10.3H1.5C0.7,10.3,0,9.5,0,8.6c0-0.9,0.7-1.7,1.5-1.7h20.8c0.8,0,1.5,0.8,1.5,1.7C23.8,9.5,23.1,10.3,22.3,10.3z"/>
	<path d="M22.3,17.2H1.5c-0.8,0-1.5-0.8-1.5-1.7c0-0.9,0.7-1.7,1.5-1.7h20.8c0.8,0,1.5,0.8,1.5,1.7C23.8,16.5,23.1,17.2,22.3,17.2z"
		/>
</g>
</svg>
