<?xml version="1.0" encoding="utf-8"?>
<!-- Generator: Adobe Illustrator 23.0.2, SVG Export Plug-In . SVG Version: 6.00 Build 0)  -->
<svg version="1.1" id="Layer_1" xmlns="http://www.w3.org/2000/svg" xmlns:xlink="http://www.w3.org/1999/xlink" x="0px" y="0px"
	 viewBox="0 0 424 304" style="enable-background:new 0 0 424 304;" xml:space="preserve">
<style type="text/css">
	.st0{fill:#CF2027;}
	.st1{clip-path:url(#SVGID_2_);fill:#FFFFFF;}
</style>
<path class="st0" d="M420.5,254.5c0,0-13.5,31-60,41c-26,5.6-41.3,2.3-62-8.3c-12.7-6.5-27.5-15.9-48-27.7
	c-53-30.4-60.7-34.8-113-35c-1,0-2,0-3,0c-55,0-129,31-129,31l0,0v-217c0,0,74-31,129-31c1,0,2,0,3,0c52.3,0.1,60,4.6,113,35
	c20.5,11.8,35.3,21.1,48,27.7c20.7,10.7,36,13.9,62,8.3c46.5-10,60-41,60-41V254.5z"/>
<g>
	<defs>
		<path id="SVGID_1_" d="M420.5,254.5c0,0-13.5,31-60,41c-26,5.6-41.3,2.3-62-8.3c-12.7-6.5-27.5-15.9-48-27.7
			c-53-30.4-60.7-34.8-113-35c-1,0-2,0-3,0c-55,0-129,31-129,31l0,0v-217c0,0,74-31,129-31c1,0,2,0,3,0c52.3,0.1,60,4.6,113,35
			c20.5,11.8,35.3,21.1,48,27.7c20.7,10.7,36,13.9,62,8.3c46.5-10,60-41,60-41V254.5z"/>
	</defs>
	<clipPath id="SVGID_2_">
		<use xlink:href="#SVGID_1_"  style="overflow:visible;"/>
	</clipPath>
	<rect x="135.9" y="-10.2" class="st1" width="146.8" height="299.4"/>
</g>
</svg>
