<?xml version="1.0" encoding="utf-8"?>
<!-- Generator: Adobe Illustrator 23.0.2, SVG Export Plug-In . SVG Version: 6.00 Build 0)  -->
<svg version="1.1" id="Layer_1" xmlns="http://www.w3.org/2000/svg" xmlns:xlink="http://www.w3.org/1999/xlink" x="0px" y="0px"
	 viewBox="0 0 424 304" style="enable-background:new 0 0 424 304;" xml:space="preserve">
<style type="text/css">
	.st0{fill:#CF2027;}
	.st1{fill:#FFFFFF;}
	.st2{fill:none;stroke:#6F7173;stroke-width:9;stroke-linejoin:round;stroke-miterlimit:10;}
	.st3{fill:none;stroke:#6F7073;stroke-width:9;stroke-linejoin:round;stroke-miterlimit:10;}
</style>
<path class="st0" d="M419.5,34.5l1,220c0,0-25.6,36.9-72.6,43.1c-9.6,1.3-31.4-3.7-42.8-7.2c-19.2-5.9-41.7-22.7-89.4-50.3
	c-24.9-14.4-24.1-10.1-78.2-15.6c-44.6-0.3-72.9,8.1-90.4,14.8c-26,10-42.6,15.7-42.6,15.7V35.5c0,0,74-31,129-31c1,0,2,0,3,0
	c52.3,0.1,60,4.6,113,35c20.5,11.8,35.3,21.1,48,27.7c20.7,10.7,36,13.9,62,8.3C406,65.5,419.5,34.5,419.5,34.5z"/>
<path class="st1" d="M283.3,278.7c0,0-0.4-198.2,0-218.1C246,49.7,211.5,0.4,136.5,7.5c0,0,0,188.3,0,214.5
	C198.4,222,237.5,252.1,283.3,278.7z"/>
<path class="st2" d="M136.5,4.5c0,0,0,191.3,0,217.5"/>
<path class="st2" d="M283.3,278.7c0,0-0.4-198.2,0-218.1"/>
<path class="st3" d="M420.5,254.5c0,0-13.5,31-60,41c-26,5.6-41.3,2.3-62-8.3c-12.7-6.5-27.5-15.9-48-27.7
	c-53-30.4-60.7-34.8-113-35c-1,0-2,0-3,0c-55,0-129,31-129,31v0v-217c0,0,74-31,129-31c1,0,2,0,3,0c52.3,0.1,60,4.6,113,35
	c20.5,11.8,35.3,21.1,48,27.7c20.7,10.7,36,13.9,62,8.3c46.5-10,60-41,60-41V254.5z"/>
</svg>
