<?xml version="1.0" encoding="utf-8"?>
<!-- Generator: Adobe Illustrator 23.0.2, SVG Export Plug-In . SVG Version: 6.00 Build 0)  -->
<svg version="1.1" id="Layer_1" xmlns="http://www.w3.org/2000/svg" xmlns:xlink="http://www.w3.org/1999/xlink" x="0px" y="0px"
	 viewBox="0 0 424 304" style="enable-background:new 0 0 424 304;" xml:space="preserve">
<style type="text/css">
	.st0{display:none;fill:#48451B;}
	.st1{fill:none;stroke:#6F7173;stroke-width:9;stroke-miterlimit:10;}
	.st2{fill:none;stroke:#6F7073;stroke-width:9;stroke-linejoin:round;stroke-miterlimit:10;}
</style>
<path class="st0" d="M4.5,210.5c0,0,74-31,129-31s62,4,116,35s68,45,110,36c46.5-10,60-41,60-41v234c0,0-66,31-92,31s-47-7-123-51
	s-132-29-158-19s-42,19-42,19V210.5z"/>
<path class="st1" d="M283.3,60.6v218.2"/>
<path class="st1" d="M136.5,222V4.5"/>
<path class="st2" d="M420.5,254.5c0,0-13.5,31-60,41c-26,5.6-41.3,2.3-62-8.3c-12.7-6.5-27.5-15.9-48-27.7
	c-53-30.4-60.7-34.8-113-35c-1,0-2,0-3,0c-55,0-129,31-129,31v0v-217c0,0,74-31,129-31c1,0,2,0,3,0c52.3,0.1,60,4.6,113,35
	c20.5,11.8,35.3,21.1,48,27.7c20.7,10.7,36,13.9,62,8.3c46.5-10,60-41,60-41V254.5z"/>
</svg>
