<?xml version="1.0" encoding="utf-8"?>
<!-- Generator: Adobe Illustrator 23.0.2, SVG Export Plug-In . SVG Version: 6.00 Build 0)  -->
<svg version="1.1" id="Layer_1" xmlns="http://www.w3.org/2000/svg" xmlns:xlink="http://www.w3.org/1999/xlink" x="0px" y="0px"
	 viewBox="0 0 424 304" style="enable-background:new 0 0 424 304;" xml:space="preserve">
<style type="text/css">
	.st0{display:none;fill:#48451B;}
	.st1{display:none;fill:#FFFFFF;}
	.st2{display:none;fill:#CF2028;}
	.st3{fill:none;stroke:#6F7072;stroke-width:9;stroke-miterlimit:10;}
	.st4{display:none;fill:none;stroke:#6F7173;stroke-width:9;stroke-linejoin:round;stroke-miterlimit:10;}
	.st5{fill:none;stroke:#6F7173;stroke-width:9;stroke-linejoin:round;stroke-miterlimit:10;}
	.st6{fill:#6F7072;}
</style>
<path class="st0" d="M4.5,210.5c0,0,74-31,129-31s62,4,116,35s68,45,110,36c46.5-10,60-41,60-41v234c0,0-66,31-92,31s-47-7-123-51
	s-132-29-158-19s-42,19-42,19V210.5z"/>
<path class="st1" d="M419.5,34.5v213c0,0-66,52-92,52c-9.7,0-18.6-1-30-4.5c-19.2-5.9-45.3-18.9-93-46.5
	c-24.9-14.4-47.7-22.5-68-26.5c-41.5-8.2-72.5,0.8-90,7.5c-26,10-42,19-42,19v-213c0,0,74-31,129-31c1,0,2,0,3,0
	c52.3,0.1,60,4.6,113,35c20.5,11.8,35.3,21.1,48,27.7c20.7,10.7,36,13.9,62,8.3C406,65.5,419.5,34.5,419.5,34.5z"/>
<path class="st2" d="M419.5,251.5c0,0-13.5,31-60,41c-26,5.6-41.3,2.3-62-8.3c-12.7-6.5-27.5-15.9-48-27.7
	c-53-30.4-60.7-34.8-113-35c-1,0-2,0-3,0c-55,0-129,31-129,31v0v-217c0,0,74-31,129-31c1,0,2,0,3,0c52.3,0.1,60,4.6,113,35
	c20.5,11.8,35.3,21.1,48,27.7c20.7,10.7,36,13.9,62,8.3c46.5-10,60-41,60-41V251.5z"/>
<path class="st3" d="M173.7,7.5l-2.9,115.9"/>
<path class="st4" d="M172.4,6.2c0,0,0,92.3,0,119.7"/>
<path class="st3" d="M0,151.3c0,0,78.5-31,133.5-31c1,0,2,0,3,0c52.3,0.1,60,4.6,113,35c20.5,11.8,35.3,21.1,48,27.7
	c20.7,10.7,36,13.9,62,8.3c46.5-10,64.5-41,64.5-41"/>
<path class="st5" d="M419.5,251.5c0,0-13.5,31-60,41c-26,5.6-41.3,2.3-62-8.3c-12.7-6.5-27.5-15.9-48-27.7
	c-53-30.4-60.7-34.8-113-35c-1,0-2,0-3,0c-55,0-129,31-129,31v0v-217c0,0,74-31,129-31c1,0,2,0,3,0c52.3,0.1,60,4.6,113,35
	c20.5,11.8,35.3,21.1,48,27.7c20.7,10.7,36,13.9,62,8.3c46.5-10,60-41,60-41V251.5z"/>
<g>
	<circle class="st6" cx="37.3" cy="52.2" r="8.8"/>
	<circle class="st6" cx="37.3" cy="83.6" r="8.8"/>
	<circle class="st6" cx="37.3" cy="116.2" r="8.8"/>
	<circle class="st6" cx="85" cy="36.5" r="8.8"/>
	<circle class="st6" cx="85" cy="67.8" r="8.8"/>
	<circle class="st6" cx="85" cy="100.4" r="8.8"/>
	<circle class="st6" cx="131.8" cy="30.7" r="8.8"/>
	<circle class="st6" cx="131.8" cy="62" r="8.8"/>
	<circle class="st6" cx="131.8" cy="94.7" r="8.8"/>
</g>
<path class="st3" d="M172.4,66.8c24.5,3.1,39.2,11.6,77.1,33.3c20.5,11.8,35.3,21.1,48,27.7c20.7,10.7,36,13.9,62,8.3
	c46.5-10,63.9-41,63.9-41"/>
<path class="st5" d="M424.3,204.6c0,0-34.5,38.7-72.1,38.7s-51.8-1-102.8-37.4s-100-37.8-133.5-35c-29.8,2.4-98.1,27.5-113,33.1
	c-1.8,0.7-2.9,2.3-2.9,4.2"/>
</svg>
