<?xml version="1.0" encoding="utf-8"?>
<!-- Generator: Adobe Illustrator 23.0.2, SVG Export Plug-In . SVG Version: 6.00 Build 0)  -->
<svg version="1.1" id="Layer_1" xmlns="http://www.w3.org/2000/svg" xmlns:xlink="http://www.w3.org/1999/xlink" x="0px" y="0px"
	 viewBox="0 0 316.5 61.7" style="enable-background:new 0 0 316.5 61.7;" xml:space="preserve">
<style type="text/css">
	.st0{fill:#1F5F3A;}
	.st1{fill:#99C63D;}
</style>
<g>
	<path class="st0" d="M68.5,40.4c-1.8-0.2-3.2-0.2-4.7-0.5c-0.4-0.1-0.7-0.7-1.1-1.1c0.4-0.3,0.8-0.8,1.2-0.8
		c1.4-0.1,2.9-0.2,4.4-0.1c1.2,0.1,1.8-0.3,2.3-1.4c5.9-11.6,11.9-23.2,17.7-34.8c0.7-1.4,1.8-1.6,3-1.6c1.3,0,2.6,0,3.4,1.6
		c8.8,17.5,17.7,35,26.5,52.5c0.4,0.8,1.8,1.7,0.3,2.7c-1.2,0.9-3.5,0.7-4.3-0.4c-1-1.3-2-2.6-2.7-4c-2-3.7-3.9-7.4-5.8-11.2
		c-0.4-0.8-0.8-1.1-1.7-1.1c-11.2,0-22.4-0.1-33.7-0.2c-1.3,0-1.9,0.4-2.5,1.5c-2.3,4.5-4.6,8.9-7,13.3c-0.4,0.7-0.8,1.5-1.4,1.9
		c-0.5,0.3-1.3,0.1-1.9,0.2c0.1-0.5,0-1.1,0.2-1.5c2.1-4.2,4.3-8.3,6.5-12.5C67.7,42.2,68.1,41.4,68.5,40.4z M90.1,4.1
		c-5.8,11.4-11.3,22.4-17,33.6c11.5,0,22.5,0,33.8,0C101.3,26.5,95.7,15.4,90.1,4.1z"/>
	<path class="st0" d="M164.6,37.5c-0.8-0.2-1.4-0.3-1.7-0.3c0,1.6,0.3,3.3-0.1,5c-0.7,3.6-3,5.9-6.3,7.2c-4.5,1.8-8.9,1.3-12.8-1.7
		c-5.3-4.1-4.7-11.4,1-14.8c5.8-3.5,13.8-1.8,16.9,3.2c0.1,0.1,0.2,0.1,0.3,0.2c1.4-0.9,2.8-1.6,2.7-3.7c0-1.2,1.9-2.1,3.8-1.5
		c1.8,0.6,3.4,0.2,5,0c3.4-0.4,6.6,0.2,9.1,2.7c3.5,3.5,3,9.5-1.1,13.3c-2.7,2.5-6,3.3-9.5,3.3c-0.4,0-0.8,0-1.5-0.1
		c0,2.5,0,4.9,0,7.3c0,0.8,0.1,1.7,0,2.4c-0.1,0.6-0.6,1.4-1.1,1.5c-1.2,0.2-2.5,0.2-3.7,0.1s-1.1-1.2-1.1-2c0-6.7,0-13.4,0-20.1
		C164.6,38.8,164.6,38.2,164.6,37.5z M157.2,40.6c-0.4-1.4-0.7-2.9-1.3-4.3c-1.6-3.3-5.3-3.9-7.9-1.4c-2.9,2.9-2.6,9.2,0.5,11.9
		c1.9,1.6,3.9,1.7,5.9,0.1S156.9,43.1,157.2,40.6z M170.5,41c0,1.5,0,3,0,4.5c0,1.8,0.6,2.4,2.4,2.3c0.8,0,1.6-0.3,2.3-0.6
		c2.8-1.6,4.4-6,3.6-9.8c-0.9-4-3.7-5.2-7.2-3c-0.5,0.4-1,1.2-1.1,1.9C170.4,37.9,170.5,39.5,170.5,41z"/>
	<path class="st0" d="M239.8,30.9c0-0.7,0-1.3,0-2c0-8.7,0-17.5,0-26.2c0-2.2,0.4-2.5,3-2.5c2.5,0,2.9,0.4,2.9,2.5
		c0,14.9,0,29.9,0,44.8c0,2.2-0.3,2.5-2.5,2.5c-0.4,0-0.8,0-1.1,0c-2-0.1-2.2-0.4-2.3-2.3c0-0.7,0-1.4,0-2.5
		c-0.8,0.7-1.4,1.1-1.9,1.5c-3.8,3.2-8,4.5-12.9,3c-3.3-1-4.8-3.8-3.7-7.1c1.5-4.3,4.8-7.1,8.8-9c2.5-1.2,5.3-1.6,8-2.4
		C238.6,31.1,239.1,31,239.8,30.9z M239.5,33.9c-0.1-0.2-0.2-0.3-0.3-0.5c-1.5,0.5-3.1,0.8-4.5,1.5c-3.7,1.7-6.8,4-7.6,8.3
		c-0.3,1.7-0.6,3.8,1.2,4.7s3.5-0.4,4.8-1.6C236.6,42.9,238.3,38.5,239.5,33.9z"/>
	<path class="st0" d="M285.1,40.4c3-1,3.6-3.1,3-5.8c-0.3-1.2-1-1.5-1.8-0.7c-1.7,1.4-3.3,3-4.8,4.5c-0.3,0.3-0.4,0.9-0.4,1.3
		c-0.1,2.6-0.1,5.3-0.1,7.9c0,1.9-0.3,2.3-2.2,2.4c-3.6,0.2-3.7,0.1-3.7-3.5s0-7.1,0-10.7c0-0.6-0.1-1.1-0.1-1.6
		c-2,0.7-3.8,1.3-5.7,2c0,0,0,0.2,0.1,0.4c1.9,4.4,0.8,8.5-3,11.4c-4.8,3.6-12.4,2.9-16.6-1.4c-3.8-4-2.9-10.4,1.9-13.5
		c4.3-2.8,10.4-2.8,14.6,0.3c0.8,0.5,1.1,0.4,1.9,0c2.8-1.6,5.9-2.7,9.2-2c0.8,0.2,1.7,0.6,2.2,1.2c0.8,1,1.4,0.8,2.3,0.2
		c2.4-1.5,4.9-2.1,7.7-1.4c2.7,0.6,4.5,2.6,4.4,4.8c-0.1,2.3-2.5,4.9-4.8,5.1c-1.3,0.1-2.7-0.1-4-0.2
		C285.2,40.8,285.1,40.6,285.1,40.4z M264.7,40.6c-0.4-1.4-0.7-2.8-1.2-4.1c-0.8-1.8-2.2-2.9-4.2-3.1c-2-0.1-3.5,0.9-4.5,2.5
		c-1.9,3-1.7,7.3,0.5,10.1c2,2.5,5.3,2.5,7.4,0.1C263.9,44.6,264.4,42.7,264.7,40.6z"/>
	<path class="st0" d="M5.8,54.6c0.9,0,1.6,0,2.3,0c10.3,0,20.6,0,30.9,0c0.8,0,1.6,0.1,2.4,0.3c0.3,0.1,0.8,0.6,0.8,0.8
		c-0.1,0.4-0.5,0.9-0.8,1c-0.7,0.2-1.5,0.2-2.2,0.2c-11.8,0-23.6,0-35.4,0C0.1,56.9,0,56.8,0,53C0,36.3,0,19.6,0,2.8
		C0,0.3,0.1,0.2,2.6,0c0.7,0,1.5-0.1,2.1,0.2C5.2,0.4,5.6,1,5.9,1.6c0.2,0.4,0,1,0,1.4c0,16.4,0,32.8,0,49.2
		C5.8,53,5.8,53.7,5.8,54.6z"/>
	<path class="st0" d="M38.1,45.4c-1.8,1.3-3.2,2.5-4.8,3.4c-2.8,1.6-5.8,2-8.9,1.3c-4.4-1-6.1-4.2-4.5-8.5c1-2.7,3-4.6,5.3-6.1
		c5-3.3,10.5-4.8,16.5-4.4c1.8,0.1,2.4,0.7,2.4,2.5c0,4.7,0,9.5,0,14.2c0,1.8-0.5,2.2-2.3,2.3c-0.4,0-0.8,0-1.1,0
		c-2.3-0.1-2.6-0.3-2.6-2.6C38.1,46.8,38.1,46.3,38.1,45.4z M37.7,33.5c-3.8,0.6-7.1,2.1-9.7,4.9c-1.9,1.9-2.8,4.3-2.6,7
		c0.2,2.5,1.4,3.3,3.7,2.3c0.9-0.4,1.7-0.9,2.4-1.6c3.4-3.2,5-7.4,6.3-11.8C37.8,34.1,37.7,33.9,37.7,33.5z"/>
	<path class="st0" d="M213.5,45.3c-1.3,1-2.3,1.9-3.4,2.7c-2.7,2-5.8,2.7-9.2,2.3c-5.6-0.6-7.8-5.1-5-10c1.5-2.7,3.9-4.6,6.6-6.1
		c4.4-2.4,9.1-3.5,14.1-3.3c2.5,0.1,2.9,0.5,2.9,2.9c0,4.7,0,9.5,0,14.2c0,1.3-0.6,1.9-1.8,1.9c-0.3,0-0.5,0-0.8,0
		c-3.2,0-3.5-0.3-3.3-3.2C213.6,46.4,213.5,46,213.5,45.3z M213.5,33.4c-4,0.7-7.1,2.1-9.8,4.6c-2.2,2.1-3.2,4.7-2.8,7.7
		c0.2,2,1.4,3,3.2,2.1c1.7-0.8,3.4-2,4.5-3.5c1.6-2.1,2.6-4.7,3.7-7.1C212.8,36.2,213,34.9,213.5,33.4z"/>
	<path class="st0" d="M310.6,45.4c-1.7,1.2-3.2,2.4-4.8,3.4c-2.9,1.7-6.1,2-9.4,1.2c-3.5-0.9-5.2-3.9-4.3-7.4
		c0.7-2.7,2.4-4.7,4.5-6.3c5.3-3.9,11.2-5.5,17.7-5.2c1.4,0.1,2.2,0.7,2.2,2.3c-0.1,4.9-0.1,9.8,0,14.7c0,1.5-0.6,2.1-2,2
		c-0.1,0-0.2,0-0.3,0c-3.4,0-3.5,0-3.5-3.4C310.7,46.3,310.6,45.9,310.6,45.4z M310.5,33.4c-5.1,1.1-9.5,2.9-11.8,7.5
		c-0.7,1.5-0.8,3.4-0.7,5.1c0.1,2,1.3,2.6,3.2,1.8c1.1-0.5,2.3-1.1,3.1-1.9C307.7,42.6,309.3,38.3,310.5,33.4z"/>
	<path class="st0" d="M132.5,50.4c-4.6-0.1-7.5-0.7-10-2.5c-4.9-3.5-5.2-9.8-0.6-13.7c3.6-3.1,7.9-3.7,12.5-2.7
		c1.8,0.4,3.5,0.8,5.3,1.4c0.5,0.2,0.9,0.9,1.3,1.4c-0.6,0.4-1.1,1-1.7,1c-1,0.1-2-0.1-3-0.3c-0.9-0.2-1.8-0.7-2.7-1
		c-4.7-1.5-8.1,0.7-8.8,5.6c-0.6,4.2,1.6,7.9,5.6,8.4c1.6,0.2,3.3-0.8,5-1.2c1.3-0.3,2.5-0.7,3.8-0.8c0.6,0,1.2,0.6,1.7,0.9
		c-0.4,0.5-0.7,1.4-1.2,1.5C136.9,49.2,134,50,132.5,50.4z"/>
	<path class="st0" d="M187,40.5c0-2.5,0-5,0-7.4c0-1.1,0.3-1.8,1.5-1.9c0.9-0.1,1.7-0.2,2.6-0.1c1.4,0.2,2,0.9,2,2.4
		c-0.1,4.8-0.1,9.6,0,14.4c0,1.5-0.6,2-2,2.2c-0.2,0-0.3,0-0.5,0c-4,0.1-3.5-0.3-3.5-3.4C187,44.6,187,42.5,187,40.5z"/>
</g>
<path class="st1" d="M197.3,16c0,0-9.8,2.3-9.8,8.6c0,2,0.7,3.9,2.5,4.5c0,0-1-4.8,1.9-7.3c0,0-2.1,3.5-1.1,7.3c0,0,3.1,0,4.8-2.7
	C196.9,24.5,195.2,22,197.3,16z"/>
</svg>
