<?xml version="1.0" encoding="utf-8"?>
<!-- Generator: Adobe Illustrator 23.0.2, SVG Export Plug-In . SVG Version: 6.00 Build 0)  -->
<svg version="1.1" id="Layer_1" xmlns="http://www.w3.org/2000/svg" xmlns:xlink="http://www.w3.org/1999/xlink" x="0px" y="0px"
	 viewBox="0 0 220.5 216" style="enable-background:new 0 0 220.5 216;" xml:space="preserve">
<style type="text/css">
	.st0{fill:#1F5C39;}
	.st1{fill:#9DC53C;}
</style>
<g>
	<path class="st0" d="M42,212.3c0.3,0.1,0.6,0.3,0.8,0.5c0.1-0.2,0.1-0.3,0.1-0.3c-0.6-0.5-0.6-0.9-0.3-1.6
		c7.4-14.2,14.8-28.5,22.2-42.8c0.3-0.6,0.5-1.2,0.9-2.1c-1,0-1.7,0-2.4,0c-18.2,0-36.4,0-54.6,0c-1.8,0-3.7-0.2-5.5-0.5
		c-2.2-0.4-3.2-1.8-3.3-4c0-0.5,0-1,0-1.5C0,108.6,0,57.4,0,6.1c0-2.6,0.5-3.4,3-4C6.5,1.2,10,1.1,13.4,1.9c2.9,0.6,3.4,1.3,3.4,4.3
		c0,19,0,37.9,0,56.9c0,31.4,0,62.8,0,94.2c0,2.7,0,2.7,2.7,2.7c15.9,0,31.7-0.1,47.6-0.1c1.4,0,2.2-0.4,2.9-1.7
		c6.5-13,13.1-25.9,19.7-38.8c5.2-10.3,10.6-20.5,15.8-30.7c5.9-11.5,11.9-23.1,17.6-34.7c1.2-2.4,2.7-3.5,5.1-3.7
		c2.5-0.1,5-0.1,7.5,0.1c2.4,0.2,3.9,1.5,4.9,3.8c2.6,5.6,5.5,11.2,8.3,16.7c7.9,15.5,15.7,31.1,23.6,46.6
		c7.3,14.4,14.6,28.7,21.9,43.1c6.3,12.3,12.5,24.7,18.7,37c2.3,4.6,4.7,9.2,7,13.7c0.7,1.3,0.5,2.4-0.8,3c-3,1.6-6.3,1.9-9.6,1.5
		c-1.1-0.1-2.4-1.3-3.2-2.3c-2.8-3.8-5.6-7.7-7.9-11.8c-5.9-10.9-11.5-22-17-33.1c-1.1-2.2-2.2-2.7-4.4-2.7
		c-33.9,0.1-67.7,0.1-101.6,0c-1.3,0-1.9,0.4-2.5,1.5c-7.8,14.8-15.6,29.6-23.5,44.4c-1.6,3-3.4,3.9-6.8,3.3
		C41.4,214.9,41.1,213.8,42,212.3z M77.2,159.8c33.6,0,66.7,0,99.9,0c-16.5-33-33-65.9-49.7-99.2C110.6,93.8,94,126.5,77.2,159.8z"
		/>
	<path class="st1" d="M177.9,2.1c0,0-29.9-7.9-46,7.2s-7.2,30.6-4.5,32c0,0,4.9-17.9,20.3-27.3c0,0-13.2,14.9-17.5,28.8
		c0,0,6.3,4.5,17.2,0.3s16.5-19.2,18.1-23.3S170.1,8.6,177.9,2.1z"/>
</g>
</svg>
